<?xml version="1.0" encoding="UTF-8" standalone="no"?>
<!DOCTYPE svg PUBLIC "-//W3C//DTD SVG 1.1//EN" "http://www.w3.org/Graphics/SVG/1.1/DTD/svg11.dtd">
<!-- Created with Vectornator (http://vectornator.io/) -->
<svg height="100%" stroke-miterlimit="10" style="fill-rule:nonzero;clip-rule:evenodd;stroke-linecap:round;stroke-linejoin:round;" version="1.1" viewBox="0 0 98.56 98.57" width="100%" xml:space="preserve" xmlns="http://www.w3.org/2000/svg" xmlns:vectornator="http://vectornator.io" xmlns:xlink="http://www.w3.org/1999/xlink">
<defs/>
<clipPath id="ArtboardFrame">
<rect height="98.57" width="98.56" x="0" y="0"/>
</clipPath>
<g clip-path="url(#ArtboardFrame)" id="Layer-1" vectornator:layerName="Layer 1">
<path d="M15.2467 0.25025C14.394 0.472694 13.3559 0.917582 12.1325 1.58491C10.909 2.25225 10.0007 2.80836 9.40753 3.25325C8.81435 3.69813 8.10994 4.32839 7.29431 5.14402C6.47868 5.95965 5.82989 6.68259 5.34793 7.31285C4.86597 7.94311 4.27278 8.8885 3.56837 10.149C2.86397 11.4095 2.27078 12.7071 1.78882 14.0418C1.30686 15.3764 0.899045 16.8594 0.565379 18.4907C0.231713 20.1219 0.0463425 21.6976 0.0092685 23.2176C-0.0278055 24.7376 0.0463425 26.2021 0.231713 27.6109C0.417083 29.0197 0.658064 30.3729 0.954656 31.6705C1.25125 32.9681 1.65906 34.414 2.1781 36.0081C2.69713 37.6023 3.27178 39.1594 3.90204 40.6795C4.5323 42.1995 5.21817 43.701 5.95965 45.184C6.70113 46.6669 7.62798 48.3723 8.7402 50.3002C9.85242 52.228 10.8534 53.8593 11.7432 55.1939C12.633 56.5286 13.8379 58.1969 15.3579 60.1989C16.8779 62.2009 18.4536 64.1288 20.0849 65.9825C21.7161 67.8362 23.44 69.6714 25.2567 71.488C27.0733 73.3046 29.5758 75.5661 32.7642 78.2725C35.9525 80.9789 38.3067 82.8882 39.8268 84.0005C41.3468 85.1127 43.5342 86.5956 46.3889 88.4493C49.2436 90.303 51.5051 91.6748 53.1734 92.5646C54.8417 93.4543 56.2876 94.1587 57.5111 94.6778C58.7345 95.1968 60.1248 95.7159 61.6819 96.2349C63.239 96.7539 64.6478 97.1617 65.9083 97.4583C67.1689 97.7549 68.5591 98.0144 70.0792 98.2369C71.5992 98.4593 73.008 98.5706 74.3056 98.5706C75.6032 98.5706 77.0305 98.4593 78.5877 98.2369C80.1448 98.0144 81.4609 97.7549 82.536 97.4583C83.6112 97.1617 84.8902 96.6798 86.3732 96.0124C87.8562 95.3451 89.1352 94.6407 90.2104 93.8992C91.2855 93.1577 92.2494 92.3792 93.1021 91.5636C93.9548 90.7479 94.6222 90.0435 95.1041 89.4503C95.5861 88.8572 96.1793 87.9488 96.8837 86.7254C97.5881 85.502 98.033 84.5751 98.2183 83.9448C98.4037 83.3146 98.5149 82.4619 98.552 81.3867C98.5891 80.3116 98.4964 79.0511 98.274 77.6052C98.0515 76.1593 97.792 75.1398 97.4954 74.5466C97.1988 73.9534 96.7725 73.3973 96.2164 72.8783C95.6602 72.3592 94.9002 71.8958 93.9363 71.488C92.9724 71.0802 89.4874 69.8567 83.4814 67.8177C77.4754 65.7786 74.009 64.7034 73.0822 64.5922C72.1553 64.481 71.3397 64.5181 70.6353 64.7034C69.9309 64.8888 69.3377 65.1298 68.8557 65.4264C68.3738 65.723 67.2986 66.7425 65.6303 68.485C63.962 70.2275 62.757 71.4138 62.0156 72.0441C61.2741 72.6743 60.6624 73.0822 60.1804 73.2675C59.6984 73.4529 59.1053 73.527 58.4008 73.49C57.6964 73.4529 56.3062 72.8412 54.23 71.6548C52.1539 70.4684 50.0963 69.1523 48.0572 67.7064C46.0181 66.2605 44.0347 64.7034 42.1068 63.0351C40.179 61.3668 38.2511 59.4945 36.3233 57.4184C34.3954 55.3422 32.9495 53.6739 31.9856 52.4134C31.0217 51.1529 30.1134 49.8738 29.2607 48.5762C28.408 47.2786 27.4811 45.6659 26.4801 43.7381C25.4791 41.8102 24.9601 40.6053 24.923 40.1234C24.8859 39.6414 24.923 39.1965 25.0342 38.7887C25.1455 38.3809 25.3679 37.9175 25.7016 37.3984C26.0352 36.8794 27.3884 35.452 29.7612 33.1164C32.1339 30.7807 33.45 29.2236 33.7096 28.445C33.9691 27.6665 34.0618 26.7582 33.9876 25.7201C33.9135 24.682 32.7827 20.9932 30.5953 14.6535C28.408 8.31385 27.0918 4.73621 26.647 3.92058C26.2021 3.10495 25.7572 2.47469 25.3123 2.0298C24.8674 1.58491 24.3484 1.23271 23.7552 0.973193C23.162 0.713675 22.4576 0.509768 21.642 0.361472C20.8263 0.213176 19.7697 0.101954 18.4721 0.0278055C17.1745-0.0463425 16.0994 0.0278055 15.2467 0.25025Z" fill="#2a6af3" fill-rule="nonzero" opacity="1" stroke="none"/>
</g>
</svg>
