<?xml version="1.0" encoding="UTF-8" standalone="no"?>
<!DOCTYPE svg PUBLIC "-//W3C//DTD SVG 1.1//EN" "http://www.w3.org/Graphics/SVG/1.1/DTD/svg11.dtd">
<!-- Created with Vectornator (http://vectornator.io/) -->
<svg height="100%" stroke-miterlimit="10" style="fill-rule:nonzero;clip-rule:evenodd;stroke-linecap:round;stroke-linejoin:round;" version="1.1" viewBox="0 0 95.84 95.84" width="100%" xml:space="preserve" xmlns="http://www.w3.org/2000/svg" xmlns:vectornator="http://vectornator.io" xmlns:xlink="http://www.w3.org/1999/xlink">
<defs/>
<clipPath id="ArtboardFrame">
<rect height="95.84" width="95.84" x="0" y="0"/>
</clipPath>
<g clip-path="url(#ArtboardFrame)" id="Layer-1" vectornator:layerName="Layer 1">
<path d="M51.7609 6.74366C50.4701 7.00182 49.6526 8.59379 49.3083 11.5196C48.9641 14.4454 48.1897 17.7154 46.9849 21.3296C45.7802 24.9439 44.4464 28.0418 42.9835 30.6234C41.5206 33.2049 40.0146 35.2702 38.4657 36.8192C36.9167 38.3681 35.8411 39.2717 35.2387 39.5298C34.9375 39.6589 34.6363 39.788 34.3351 39.9171C34.2061 39.4008 34.077 38.8844 33.9479 38.3681C33.6897 37.3355 33.0443 36.475 32.0117 35.7865C30.9791 35.0981 26.031 34.7539 17.1676 34.7539C8.30411 34.7539 3.35607 35.0981 2.32343 35.7865C1.29079 36.475 0.645397 37.1634 0.387238 37.8518C0.129079 38.5402 0 46.5862 0 61.9897C0 77.3931 0.129079 85.4821 0.387238 86.2566C0.645397 87.0311 1.03264 87.6334 1.54895 88.0637C2.06527 88.494 2.71067 88.8382 3.48515 89.0963C4.25962 89.3545 8.82043 89.4836 17.1676 89.4836C25.5147 89.4836 30.2046 89.2684 31.2372 88.8382C32.2699 88.4079 32.9583 87.9777 33.3025 87.5474C33.6467 87.1171 33.8618 86.6008 33.9479 85.9984C34.0339 85.3961 34.163 85.0949 34.3351 85.0949C34.5072 85.0949 35.4538 85.5251 37.1749 86.3857C38.8959 87.2462 40.9182 87.8916 43.2416 88.3219C45.565 88.7521 53.1807 88.9673 66.0887 88.9673C78.9966 88.9673 85.7088 88.8812 86.2251 88.7091C86.7414 88.537 87.4728 88.0637 88.4194 87.2892C89.366 86.5148 90.0544 85.6542 90.4847 84.7076C90.915 83.7611 91.1301 82.6424 91.1301 81.3516C91.1301 80.0608 90.8719 78.856 90.3556 77.7374C90.0975 77.178 89.8393 76.6187 89.5811 76.0593C90.0114 75.9733 90.4417 75.8872 90.8719 75.8012C91.7325 75.6291 92.55 75.1988 93.3244 74.5104C94.0989 73.8219 94.7443 72.7463 95.2606 71.2834C95.777 69.8205 95.9491 68.4006 95.777 67.0238C95.6048 65.6469 95.0885 64.4852 94.228 63.5386C93.3675 62.592 93.2814 61.6885 93.9698 60.8279C94.6583 59.9674 95.1316 59.1499 95.3897 58.3754C95.6479 57.601 95.6909 56.3962 95.5188 54.7612C95.3467 53.1262 95.0885 52.0075 94.7443 51.4051C94.4001 50.8028 93.9268 50.2865 93.3244 49.8562C92.7221 49.4259 92.8511 48.4793 93.7117 47.0164C94.5722 45.5535 94.9164 43.9185 94.7443 42.1114C94.5722 40.3043 94.185 38.9705 93.5826 38.11C92.9802 37.2494 92.0336 36.518 90.7429 35.9156C89.4521 35.3132 84.8482 35.0121 76.9314 35.0121C72.9729 35.0121 69.0145 35.0121 65.056 35.0121C65.1421 32.7317 65.2281 30.4512 65.3142 28.1708C65.4863 23.61 65.2712 19.8667 64.6688 16.9409C64.0664 14.0151 63.5931 12.208 63.2489 11.5196C62.9047 10.8312 62.2593 10.0137 61.3127 9.06709C60.3662 8.1205 59.2905 7.43208 58.0858 7.00182C56.881 6.57155 55.8484 6.35642 54.9878 6.35642C54.1273 6.35642 53.0517 6.4855 51.7609 6.74366Z" fill="#2a6af3" fill-rule="nonzero" opacity="1" stroke="none"/>
</g>
</svg>
