<?xml version="1.0" encoding="UTF-8" standalone="no"?>
<!DOCTYPE svg PUBLIC "-//W3C//DTD SVG 1.1//EN" "http://www.w3.org/Graphics/SVG/1.1/DTD/svg11.dtd">
<!-- Created with Vectornator (http://vectornator.io/) -->
<svg height="100%" stroke-miterlimit="10" style="fill-rule:nonzero;clip-rule:evenodd;stroke-linecap:round;stroke-linejoin:round;" version="1.1" viewBox="0 0 541.34 517.2" width="100%" xml:space="preserve" xmlns="http://www.w3.org/2000/svg" xmlns:vectornator="http://vectornator.io" xmlns:xlink="http://www.w3.org/1999/xlink">
<defs/>
<clipPath id="ArtboardFrame">
<rect height="517.2" width="541.34" x="0" y="0"/>
</clipPath>
<g clip-path="url(#ArtboardFrame)" id="Layer-1" vectornator:layerName="Layer 1">
<path d="M534.824 213.432L431.499 312.415C420.482 322.969 413.536 343.733 415.984 358.792L438.948 500.023C441.396 515.082 432.484 521.44 419.042 514.224L292.974 446.543C279.532 439.327 257.638 439.137 244.073 446.119L116.85 511.602C103.285 518.584 94.4841 512.073 97.1935 497.058L122.604 356.247C125.314 341.232 118.729 320.351 107.896 309.607L6.30456 208.846C-4.52786 198.103-1.05472 187.721 14.062 185.658L155.834 166.312C170.951 164.249 188.775 151.533 195.646 137.911L260.082 10.1549C266.952-3.46738 277.899-3.3724 284.532 10.367L346.742 139.222C353.375 152.961 370.976 165.984 386.055 168.309L527.47 190.112C542.549 192.437 545.841 202.878 534.824 213.432Z" fill="#ffffff" fill-rule="nonzero" opacity="1" stroke="none"/>
</g>
</svg>
